HIERARCHY
ROOT Hips
{
	OFFSET -3.958830 18.904000 13.208200
	CHANNELS 6 Xposition Yposition Zposition Zrotation Yrotation Xrotation 
	JOINT LHipJoint
	{
		OFFSET 0.000000 0.000000 0.000000
		CHANNELS 3 Zrotation Yrotation Xrotation
		JOINT LeftUpLeg
		{
			OFFSET 1.800000 -1.400000 0.085000
			CHANNELS 3 Zrotation Yrotation Xrotation
			JOINT LeftLeg
			{
				OFFSET 2.215000 -6.000000 0.000000
				CHANNELS 3 Zrotation Yrotation Xrotation
				JOINT LeftFoot
				{
					OFFSET 2.500000 -6.900000 0.000000
					CHANNELS 3 Zrotation Yrotation Xrotation
					JOINT LeftToeBase
					{
						OFFSET 0.200000 -0.500000 1.950000
						CHANNELS 3 Zrotation Yrotation Xrotation
						End Site
						{
							OFFSET 0.000000 0.000000 0.000000
						}
					}
				}
			}
		}
	}
	JOINT RHipJoint
	{
		OFFSET 0.000000 0.000000 0.000000
		CHANNELS 3 Zrotation Yrotation Xrotation
		JOINT RightUpLeg
		{
			OFFSET -1.800000 -1.400000 0.085000
			CHANNELS 3 Zrotation Yrotation Xrotation
			JOINT RightLeg
			{
				OFFSET -2.215000 -6.000000 0.000000
				CHANNELS 3 Zrotation Yrotation Xrotation
				JOINT RightFoot
				{
					OFFSET -2.500000 -6.900000 0.000000
					CHANNELS 3 Zrotation Yrotation Xrotation
					JOINT RightToeBase
					{
						OFFSET -0.200000 -0.500000 1.950000
						CHANNELS 3 Zrotation Yrotation Xrotation
						End Site
						{
							OFFSET 0.000000 0.000000 0.000000
						}
					}
				}
			}
		}
	}
	JOINT LowerBack
	{
		OFFSET 0.000000 0.000000 0.000000
		CHANNELS 3 Zrotation Yrotation Xrotation
		JOINT Spine
		{
			OFFSET -0.087000 1.940000 -0.288900
			CHANNELS 3 Zrotation Yrotation Xrotation
			JOINT Spine1
			{
				OFFSET 0.000000 1.950000 0.060000
				CHANNELS 3 Zrotation Yrotation Xrotation
				JOINT Neck
				{
					OFFSET 0.000000 0.000000 0.000000
					CHANNELS 3 Zrotation Yrotation Xrotation
					JOINT Neck1
					{
						OFFSET 0.000000 1.600000 0.340000
						CHANNELS 3 Zrotation Yrotation Xrotation
						JOINT Head
						{
							OFFSET 0.000000 1.667000 -0.240000
							CHANNELS 3 Zrotation Yrotation Xrotation
							End Site
							{
								OFFSET 0.000000 0.000000 0.000000
							}
						}
					}
				}
				JOINT LeftShoulder
				{
					OFFSET 0.000000 0.000000 0.000000
					CHANNELS 3 Zrotation Yrotation Xrotation
					JOINT LeftArm
					{
						OFFSET 2.700000 1.550000 -0.730000
						CHANNELS 3 Zrotation Yrotation Xrotation
						JOINT LeftForeArm
						{
							OFFSET 5.450000 0.000000 0.000000
							CHANNELS 3 Zrotation Yrotation Xrotation
							JOINT LeftHand
							{
								OFFSET 3.450000 0.000000 0.000000
								CHANNELS 3 Zrotation Yrotation Xrotation
								JOINT LeftHandIndex1
								{
									OFFSET 0.750000 0.000000 0.000000
									CHANNELS 3 Zrotation Yrotation Xrotation
									End Site
									{
										OFFSET 0.000000 0.000000 0.000000
									}
								}
							}
						}
					}
				}
				JOINT RightShoulder
				{
					OFFSET 0.000000 0.000000 0.000000
					CHANNELS 3 Zrotation Yrotation Xrotation
					JOINT RightArm
					{
						OFFSET -2.700000 1.550000 -0.730000
						CHANNELS 3 Zrotation Yrotation Xrotation
						JOINT RightForeArm
						{
							OFFSET -5.450000 0.000000 0.000000
							CHANNELS 3 Zrotation Yrotation Xrotation
							JOINT RightHand
							{
								OFFSET -3.450000 0.000000 0.000000
								CHANNELS 3 Zrotation Yrotation Xrotation
								JOINT RightHandIndex1
								{
									OFFSET -0.750000 0.000000 0.000000
									CHANNELS 3 Zrotation Yrotation Xrotation
									End Site
									{
										OFFSET 0.000000 0.000000 0.000000
									}
								}
							}
						}
					}
				}
			}
		}
	}
}
MOTION
Frames: 4
Frame Time: 0.016667
0.320490 17.210930 -9.093330 0.879109 -4.403716 -0.457104 -14.265039 11.856198 3.228476 0.547092 -2.493408 -11.897962 -15.762488 6.686883 11.026022 0.085911 3.884589 3.285877 1.028320 0.639520 0.688170 19.075490 -12.215974 2.711855 -9.468732 0.070776 -10.070617 10.054468 -6.918282 14.596592 -0.778285 -4.236849 2.873333 0.086750 -0.253490 0.544820 -5.969951 2.672981 -7.410334 35.164442 -6.300368 6.827056 -31.940138 0.596458 12.527780 13.408022 2.260955 -10.156277 3.936315 -6.107114 47.796668 -0.460670 -8.247610 -12.409260 -17.751745 -0.801836 2.762601 -44.614193 3.859916 -9.472634 -23.192720 -35.893379 4.527134 -2.967154 3.884992 0.522110 -0.204870 0.341880 0.383910 -9.631159 0.675835 11.189130 4.045636 -4.777763 0.824572 -110.158639 67.760795 -85.457371 1.945263 -0.036130 0.428710 -0.306830 -0.474860 -0.084820 
0.330590 17.214480 -9.089530 0.849503 -4.563482 -0.397983 -14.213361 11.810442 3.252686 0.588601 -2.484136 -11.857447 -16.076009 6.725072 10.853709 0.098716 3.889237 3.283555 1.039250 0.653060 0.696890 19.118331 -12.283277 2.719275 -9.378411 0.098145 -10.255400 9.655380 -6.833732 14.789730 -0.768805 -4.220592 2.877085 0.094230 -0.261270 0.542330 -6.104646 2.852206 -7.467570 35.557298 -5.993456 6.735919 -32.028293 0.791418 11.941363 13.696381 2.408740 -9.718192 4.545302 -6.544947 47.732240 -0.778950 -8.327660 -11.744740 -17.798472 -1.169236 3.444720 -44.565719 4.463249 -9.566666 -23.596475 -36.388465 4.704356 -2.942465 3.924186 0.509200 -0.202840 0.339050 0.388710 -10.084047 1.158368 9.507656 3.649768 -4.720146 -1.464929 -99.980962 73.221062 -70.463482 0.981274 1.789841 0.434710 -0.319890 -0.489970 -0.083160 
0.342340 17.215320 -9.086550 0.850284 -4.586272 -0.187198 -14.195812 11.668470 3.252237 0.645486 -2.506380 -11.935893 -16.516260 6.788986 10.737621 0.129620 3.889248 3.280631 1.053950 0.670790 0.712170 19.138382 -12.422247 2.713114 -9.115762 0.163490 -10.731780 8.975463 -6.730616 15.325217 -0.761790 -4.214747 2.864354 0.098900 -0.272090 0.556720 -6.152624 3.345055 -7.474399 35.626469 -5.175494 6.068332 -31.724037 1.400677 11.391951 14.019752 2.736710 -9.227863 6.054678 -7.462232 47.592861 -1.550020 -8.331300 -10.310860 -17.597726 -2.377724 4.879593 -44.618181 5.494941 -9.724349 -24.594844 -37.133117 5.046573 -2.932448 3.996564 0.476360 -0.193130 0.339130 0.394750 -10.611276 2.620225 7.002982 3.002380 -6.213667 -6.556749 -66.903754 81.238826 -45.608937 1.363118 -0.796161 0.458260 -0.354770 -0.512320 -0.074540 
0.360470 17.209700 -9.080570 0.852352 -4.068292 -0.266901 -14.228489 11.674555 3.263616 0.694312 -2.461537 -11.696849 -16.804478 6.825413 10.518236 0.202471 3.899649 3.283696 1.088660 0.720930 0.744110 19.107031 -12.425500 2.685773 -9.052850 0.124056 -10.643993 8.719220 -6.720816 15.711639 -0.762973 -4.267697 2.829805 0.117730 -0.286140 0.584070 -6.062638 3.339801 -7.445854 35.129903 -5.225017 5.716477 -31.101790 1.327275 11.788781 14.285563 3.268726 -9.392520 7.219453 -8.415125 46.634288 -3.177610 -8.248570 -8.092560 -18.107624 -1.965319 4.698150 -44.415385 6.013523 -9.964634 -25.744407 -38.142329 5.567588 -2.912120 4.090428 0.408070 -0.169940 0.344620 0.416240 -10.617106 2.121591 7.811084 1.238094 -3.942265 -4.235038 -43.366352 72.567913 -25.504715 1.966460 -2.345943 0.503200 -0.410430 -0.567360 -0.048740 
